<?xml version="1.0" encoding="utf-8"?>
<!-- Generator: Adobe Illustrator 19.2.1, SVG Export Plug-In . SVG Version: 6.00 Build 0)  -->
<svg version="1.1" id="Слой_1" xmlns="http://www.w3.org/2000/svg" xmlns:xlink="http://www.w3.org/1999/xlink" x="0px" y="0px"
	 viewBox="0 0 12 27" style="enable-background:new 0 0 12 27;" xml:space="preserve">
<title>arrow</title>
<desc>Created with Sketch.</desc>
<g id="Page-1">
	
		<g id="arrow" transform="translate(98.000000, 201.000000) rotate(180.000000) translate(-98.000000, -201.000000) translate(-1.000000, 0.000000)">
		<path id="Shape" d="M196.9,381.3l-5.6-6.2c-0.1-0.1-0.2-0.1-0.3-0.1s-0.2,0-0.3,0.1l-5.6,6.2c-0.1,0.2-0.1,0.4,0,0.6
			c0.1,0.2,0.4,0.2,0.5,0l5-5.5v25.2c0,0.2,0.2,0.4,0.4,0.4s0.4-0.2,0.4-0.4v-25.2l5,5.5c0.1,0.1,0.2,0.1,0.3,0.1
			c0.1,0,0.2,0,0.3-0.1C197,381.7,197,381.5,196.9,381.3z"/>
	</g>
</g>
</svg>
