<?xml version="1.0" encoding="utf-8"?>
<!-- Generator: Adobe Illustrator 19.2.1, SVG Export Plug-In . SVG Version: 6.00 Build 0)  -->
<svg version="1.1" id="Layer_1" xmlns="http://www.w3.org/2000/svg" xmlns:xlink="http://www.w3.org/1999/xlink" x="0px" y="0px"
	 viewBox="0 0 196.1 401.8" style="enable-background:new 0 0 196.1 401.8;" xml:space="preserve">
<g>
	<g>
		<path d="M194.3,93.9L102.2,1.8C101.1,0.7,99.5,0,98,0s-3.1,0.6-4.2,1.8L1.7,93.9c-2.3,2.3-2.3,6.1,0,8.5c2.3,2.3,6.1,2.3,8.5,0
			L92,20.6v375.1c0,3.4,2.7,6.1,6,6.1s6-2.7,6-6V20.6l81.9,81.8c1.2,1.2,2.7,1.8,4.2,1.8s3.1-0.6,4.2-1.8
			C196.6,100.1,196.6,96.3,194.3,93.9z"/>
	</g>
</g>
</svg>
