<?xml version="1.0" encoding="utf-8"?>
<!-- Generator: Adobe Illustrator 21.1.0, SVG Export Plug-In . SVG Version: 6.00 Build 0)  -->
<svg version="1.1" id="_x2014_ÎÓÈ_x5F_1" xmlns="http://www.w3.org/2000/svg" xmlns:xlink="http://www.w3.org/1999/xlink"
	 x="0px" y="0px" viewBox="0 0 700 700" style="enable-background:new 0 0 700 700;" xml:space="preserve">
<g>
	<path d="M583.9,475.3h-340l-84.5-328l-0.4-1.4L41,81.2c-6.9-3.8-15.6-1.2-19.4,5.7c-1.8,3.4-2.3,7.2-1.2,10.9
		c1.1,3.7,3.5,6.7,6.9,8.5L134.4,165l87.3,338.8h362.2c7.9,0,14.3-6.4,14.3-14.3S591.8,475.3,583.9,475.3z"/>
	<path d="M677.4,196.9c-2.7-3.7-7-5.9-11.6-5.9H222c-7.9,0-14.3,6.4-14.3,14.3c0,7.9,6.4,14.3,14.3,14.3h424.2l-59.7,185.5H277.9
		c-7.9,0-14.3,6.4-14.3,14.3s6.4,14.3,14.3,14.3h319c6.2,0,11.7-4,13.6-9.9l69-214.2C680.9,205.4,680.1,200.6,677.4,196.9z"/>
	<path d="M511.3,516c-28.8,0-52.2,23.4-52.2,52.2s23.4,52.2,52.2,52.2c28.8,0,52.2-23.4,52.2-52.2C563.6,539.5,540.1,516,511.3,516z
		 M534.9,568.3c0,13-10.6,23.6-23.6,23.6s-23.6-10.6-23.6-23.6s10.6-23.6,23.6-23.6C524.3,544.7,534.9,555.3,534.9,568.3z"/>
	<path d="M298,516c-28.8,0-52.2,23.4-52.2,52.2s23.4,52.2,52.2,52.2s52.2-23.4,52.2-52.2C350.3,539.5,326.8,516,298,516z
		 M321.6,568.3c0,13-10.6,23.6-23.6,23.6s-23.6-10.6-23.6-23.6s10.6-23.6,23.6-23.6S321.6,555.3,321.6,568.3z"/>
</g>
</svg>
