<?xml version="1.0" encoding="utf-8"?>
<!-- Generator: Adobe Illustrator 21.1.0, SVG Export Plug-In . SVG Version: 6.00 Build 0)  -->
<svg version="1.1" id="_x2014_ÎÓÈ_x5F_1" xmlns="http://www.w3.org/2000/svg" xmlns:xlink="http://www.w3.org/1999/xlink"
	 x="0px" y="0px" viewBox="0 0 700 700" style="enable-background:new 0 0 700 700;" xml:space="preserve">
<path d="M497.8,56.5c-57.5,0-111.1,25.1-147.8,69.1c-36.7-44-90.3-69.1-147.8-69.1C96.1,56.5,9.7,142.9,9.7,249
	c0,34.6,10.4,70.4,30,103.4c20.6,34.7,50.8,64.7,87.2,87c150.8,92.1,210,186.5,210.5,187.4l8.8,14.6c0.8,1.3,2.2,2.1,3.8,2.1
	c1.6,0,3-0.8,3.8-2.1l8.8-14.6c0.6-0.9,58.8-94.8,210.5-187.4c36.4-22.2,66.6-52.3,87.2-87c19.6-33,30-68.7,30-103.4
	C690.3,142.9,603.9,56.5,497.8,56.5z M660.8,249c0,63.1-39.5,126.4-103,165.2C437.4,487.6,373.9,561.5,350,593.3
	c-23.9-31.8-87.4-105.7-207.8-179.1c-63.5-38.8-103-102.1-103-165.2c0-89.9,73.1-163,163-163c54.5,0,105.2,27.1,135.5,72.4l7.3,10.9
	c1.1,1.7,3,2.6,4.9,2.6c2,0,3.8-1,4.9-2.6l7.3-10.9C392.5,113,443.1,86,497.6,86C587.7,86,660.8,159.1,660.8,249z"/>
</svg>
