<?xml version="1.0" encoding="utf-8"?>
<!-- Generator: Adobe Illustrator 21.1.0, SVG Export Plug-In . SVG Version: 6.00 Build 0)  -->
<svg version="1.1" id="_x2014_ÎÓÈ_x5F_1" xmlns="http://www.w3.org/2000/svg" xmlns:xlink="http://www.w3.org/1999/xlink"
	 x="0px" y="0px" viewBox="0 0 700 700" style="enable-background:new 0 0 700 700;" xml:space="preserve">
<path d="M610.2,469c-40.3-54.3-95-93.8-158.7-114.7c52.2-33.9,83.7-90.6,84.6-153.2c1.5-101.7-79.9-186.4-181.5-188.8
	c-50.5-1.2-98.2,17.6-134.4,52.9s-56.1,82.6-56.1,133.1c0,32.3,8.4,64.2,24.3,92.1c14.7,25.7,35.4,47.7,60.3,63.9
	c-62,20.5-117.6,60.2-157.1,112.4c-45,59.2-67.6,130-65.5,204.5c0,0.5,0,1,0.1,1.5v0.8c0.3,7.9,6.7,14.1,14.6,14.1h618.4
	c7.9,0,14.4-6.2,14.6-14.1c0.1-4.3,0.2-7.9,0.2-11.4C674.1,592.2,652,525.4,610.2,469z M273.3,377.5c8.6-2.3,14.9-9.6,15.8-18.5
	c1-9-3.6-17.5-11.6-21.7c-52-27.2-84.3-80.4-84.3-139c0-87.7,72.3-158.8,160.5-156.7c85.6,2,154.2,73.4,152.9,159
	c-0.8,57.6-33.2,110-84.4,136.7c-7.9,4.1-12.5,12.6-11.5,21.5s7.2,16.2,15.9,18.6c127.1,34.2,216.4,149.4,218,280.9H55.3
	C56.9,526.9,146.2,411.6,273.3,377.5z"/>
</svg>
