<svg id="Слой_1" data-name="Слой 1" xmlns="http://www.w3.org/2000/svg" width="66" height="22" viewBox="0 0 66 22"><title>logo</title><g id="Page-1"><g id="logo"><path id="plenties" d="M0.73,6.41a0.63,0.63,0,0,1,.71.53V8A3.5,3.5,0,0,1,4.52,6.28a4.14,4.14,0,0,1,4.13,4.13v2.41A4.28,4.28,0,0,1,4.58,17a3.61,3.61,0,0,1-3.09-1.7v6.12A0.7,0.7,0,0,1,.73,22,0.69,0.69,0,0,1,0,21.45V6.94A0.64,0.64,0,0,1,.73,6.41Zm6.42,6.41V10.41A3,3,0,0,0,4.26,7.61a2.75,2.75,0,0,0-2.77,2.81v3.1A3,3,0,0,0,4.31,15.7,3,3,0,0,0,7.15,12.82ZM12,0a0.64,0.64,0,0,0-.73.53V16.3a0.69,0.69,0,0,0,.73.57,0.7,0.7,0,0,0,.76-0.57V0.53A0.65,0.65,0,0,0,12,0Zm7.79,6.28a4.14,4.14,0,0,1,4.29,4c0,1.7-1,1.77-2,1.77H16.92v0.82c0,1.77,1.47,2.87,3.48,2.87,1.81,0,2.25-.88,2.75-0.88a0.74,0.74,0,0,1,.64.69c0,0.53-1.31,1.46-3.44,1.46-2.89,0-4.93-1.68-4.93-4.2V10.35A4.26,4.26,0,0,1,19.81,6.28ZM16.92,11H21.5c0.92,0,1.15-.13,1.15-0.75a2.83,2.83,0,0,0-2.87-2.79,2.79,2.79,0,0,0-2.87,2.7V11Zm10.91-.6a2.73,2.73,0,0,1,2.73-2.81,2.93,2.93,0,0,1,2.87,2.81V16.3a0.66,0.66,0,0,0,.73.57,0.67,0.67,0,0,0,.76-0.57V10.41a4.15,4.15,0,0,0-4.08-4.13A3.44,3.44,0,0,0,27.76,8v-1a0.74,0.74,0,0,0-1.42,0V16.3a0.67,0.67,0,0,0,.73.57,0.71,0.71,0,0,0,.76-0.57V10.41ZM39.16,7.61h3a0.6,0.6,0,0,0,0-1.19h-3V2a0.7,0.7,0,0,0-.76-0.53,0.69,0.69,0,0,0-.73.53V13.62c0,2.28,1.26,3.25,3.62,3.25h0.64a0.65,0.65,0,1,0,0-1.3H41.29c-1.58,0-2.13-.51-2.13-1.95v-6Zm6.1-1.19a0.64,0.64,0,0,0-.73.53V16.3a0.69,0.69,0,0,0,.73.57A0.71,0.71,0,0,0,46,16.3V6.94A0.67,0.67,0,0,0,45.25,6.41Zm0-4.93a1,1,0,0,0-1,.91,1,1,0,0,0,1,.93,1,1,0,0,0,1-.93A1,1,0,0,0,45.25,1.48Zm7.61,4.8a4.14,4.14,0,0,1,4.29,4c0,1.7-1,1.77-2,1.77H50v0.82c0,1.77,1.47,2.87,3.48,2.87,1.81,0,2.25-.88,2.75-0.88a0.74,0.74,0,0,1,.64.69c0,0.53-1.31,1.46-3.44,1.46-2.89,0-4.93-1.68-4.93-4.2V10.35A4.26,4.26,0,0,1,52.86,6.28ZM50,11h4.58c0.92,0,1.15-.13,1.15-0.75a2.83,2.83,0,0,0-2.87-2.79A2.79,2.79,0,0,0,50,10.17V11Zm12.29,4.8c-2.06,0-2.52-1-3-1a0.66,0.66,0,0,0-.53.66c0,0.66,1.44,1.59,3.6,1.59C64.65,17,66,15.92,66,14.17c0-4-5.69-2.43-5.69-5,0-.73.6-1.72,2.29-1.72A8,8,0,0,1,65,8.11a0.8,0.8,0,0,0,.62-0.75c0-.53-1.56-1.08-3.07-1.08C60,6.28,59,7.87,59,9.29c0,3.67,5.66,2,5.66,5C64.62,15.08,64,15.81,62.26,15.81Z"/></g></g></svg>