<svg data-name="Слой 1" xmlns="http://www.w3.org/2000/svg" width="66" height="22" viewBox="0 0 66 22">
    <title>
        logo
    </title>
    <path d="M.73 6.41a.63.63 0 0 1 .71.53V8a3.5 3.5 0 0 1 3.08-1.72 4.14 4.14 0 0 1 4.13 4.13v2.41A4.28 4.28 0 0 1 4.58 17a3.61 3.61 0 0 1-3.09-1.7v6.12a.7.7 0 0 1-.76.58.69.69 0 0 1-.73-.55V6.94a.64.64 0 0 1 .73-.53zm6.42 6.41v-2.41a3 3 0 0 0-2.89-2.8 2.75 2.75 0 0 0-2.77 2.81v3.1a3 3 0 0 0 2.82 2.18 3 3 0 0 0 2.84-2.88zM12 0a.64.64 0 0 0-.73.53V16.3a.69.69 0 0 0 .73.57.7.7 0 0 0 .76-.57V.53A.65.65 0 0 0 12 0zm7.79 6.28a4.14 4.14 0 0 1 4.29 4c0 1.7-1 1.77-2 1.77h-5.16v.82c0 1.77 1.47 2.87 3.48 2.87 1.81 0 2.25-.88 2.75-.88a.74.74 0 0 1 .64.69c0 .53-1.31 1.46-3.44 1.46-2.89 0-4.93-1.68-4.93-4.2v-2.46a4.26 4.26 0 0 1 4.39-4.07zM16.92 11h4.58c.92 0 1.15-.13 1.15-.75a2.83 2.83 0 0 0-2.87-2.79 2.79 2.79 0 0 0-2.87 2.7V11zm10.91-.6a2.73 2.73 0 0 1 2.73-2.81 2.93 2.93 0 0 1 2.87 2.81v5.9a.66.66 0 0 0 .73.57.67.67 0 0 0 .76-.57v-5.89a4.15 4.15 0 0 0-4.08-4.13A3.44 3.44 0 0 0 27.76 8V7a.74.74 0 0 0-1.42 0v9.3a.67.67 0 0 0 .73.57.71.71 0 0 0 .76-.57v-5.89zm11.33-2.79h3a.6.6 0 0 0 0-1.19h-3V2a.7.7 0 0 0-.76-.53.69.69 0 0 0-.73.53v11.62c0 2.28 1.26 3.25 3.62 3.25h.64a.65.65 0 1 0 0-1.3h-.64c-1.58 0-2.13-.51-2.13-1.95v-6zm6.1-1.19a.64.64 0 0 0-.73.53v9.35a.69.69 0 0 0 .73.57.71.71 0 0 0 .74-.57V6.94a.67.67 0 0 0-.75-.53zm0-4.93a1 1 0 0 0-1 .91 1 1 0 0 0 1 .93 1 1 0 0 0 1-.93 1 1 0 0 0-1.01-.92zm7.61 4.8a4.14 4.14 0 0 1 4.29 4c0 1.7-1 1.77-2 1.77H50v.82c0 1.77 1.47 2.87 3.48 2.87 1.81 0 2.25-.88 2.75-.88a.74.74 0 0 1 .64.69c0 .53-1.31 1.46-3.44 1.46-2.89 0-4.93-1.68-4.93-4.2v-2.47a4.26 4.26 0 0 1 4.36-4.07zM50 11h4.58c.92 0 1.15-.13 1.15-.75a2.83 2.83 0 0 0-2.87-2.79A2.79 2.79 0 0 0 50 10.17V11zm12.29 4.8c-2.06 0-2.52-1-3-1a.66.66 0 0 0-.53.66c0 .66 1.44 1.59 3.6 1.59C64.65 17 66 15.92 66 14.17c0-4-5.69-2.43-5.69-5 0-.73.6-1.72 2.29-1.72a8 8 0 0 1 2.4.66.8.8 0 0 0 .62-.75c0-.53-1.56-1.08-3.07-1.08C60 6.28 59 7.87 59 9.29c0 3.67 5.66 2 5.66 5-.04.79-.66 1.52-2.4 1.52z"/>
</svg>
