<?xml version="1.0" encoding="UTF-8"?><!DOCTYPE svg PUBLIC "-//W3C//DTD SVG 1.1//EN" "http://www.w3.org/Graphics/SVG/1.1/DTD/svg11.dtd"><svg xmlns="http://www.w3.org/2000/svg"><symbol id="icon-arrow" viewBox="0 0 196.1 401.8">
    <path d="M194.3 93.9L102.2 1.8C101.1.7 99.5 0 98 0s-3.1.6-4.2 1.8L1.7 93.9c-2.3 2.3-2.3 6.1 0 8.5 2.3 2.3 6.1 2.3 8.5 0L92 20.6v375.1c0 3.4 2.7 6.1 6 6.1s6-2.7 6-6V20.6l81.9 81.8c1.2 1.2 2.7 1.8 4.2 1.8s3.1-.6 4.2-1.8c2.3-2.3 2.3-6.1 0-8.5z"/>
</symbol><symbol id="icon-facebook" viewBox="0 0 1536 1536">
    <path d="M1451 0c23.3 0 43.3 8.3 60 25s25 36.7 25 60v1366c0 23.3-8.3 43.3-25 60s-36.7 25-60 25h-391V941h199l30-232h-229V561c0-37.3 7.8-65.3 23.5-84s46.2-28 91.5-28l122-1V241c-42-6-101.3-9-178-9-90.7 0-163.2 26.7-217.5 80-54.3 53.3-81.5 128.7-81.5 226v171H620v232h200v595H85c-23.3 0-43.3-8.3-60-25s-25-36.7-25-60V85c0-23.3 8.3-43.3 25-60S61.7 0 85 0h1366z"/>
</symbol><symbol id="icon-instagram" viewBox="0 0 49.6 49.6">
    <path d="M24.8 11.9c-7 0-12.8 5.7-12.8 12.8s5.7 12.8 12.8 12.8 12.8-5.8 12.8-12.8-5.8-12.8-12.8-12.8zm0 21c-4.5 0-8.2-3.7-8.2-8.2s3.7-8.2 8.2-8.2 8.2 3.7 8.2 8.2-3.7 8.2-8.2 8.2z"/>
    <circle cx="38.1" cy="11.6" r="2.9"/>
    <path d="M45.6 4.1C43 1.4 39.3 0 35.1 0H14.5C5.8 0 0 5.8 0 14.5V35c0 4.3 1.4 8 4.2 10.7 2.7 2.6 6.3 3.9 10.4 3.9H35c4.3 0 7.9-1.4 10.5-3.9 2.7-2.6 4.1-6.3 4.1-10.6V14.5c0-4.2-1.4-7.8-4-10.4zm-.4 31c0 3.1-1.1 5.6-2.9 7.3S38 45 35 45H14.6c-3 0-5.5-.9-7.3-2.6-1.8-1.8-2.7-4.3-2.7-7.4V14.5c0-3 .9-5.5 2.7-7.3 1.7-1.7 4.3-2.6 7.3-2.6h20.6c3 0 5.5.9 7.3 2.7 1.7 1.8 2.7 4.3 2.7 7.2v20.6z"/>
</symbol><symbol id="icon-snapchat" viewBox="0 0 56.1 52.8">
    <style>
        .st0{fill:#231f20}
    </style>
    <g id="Layer_1">
        <g id="snapchat">
            <path class="st0" d="M35.3 1.3z"/>
            <path class="st0" d="M20.6 1.3z"/>
            <path class="st0" d="M49.7 20.6z"/>
            <path class="st0" d="M5.1 22.7z"/>
            <path class="st0" d="M5.4 25.1z"/>
            <path class="st0" d="M47 47.7z"/>
            <path class="st0" d="M48.4 45.6z"/>
            <path class="st0" d="M8.6 47.5z"/>
            <path class="st0" d="M11.9 34.3z"/>
            <path class="st0" d="M15 28.4z"/>
            <path class="st0" d="M50.8 23.4z"/>
            <path class="st0" d="M13.2 25.9z"/>
            <path class="st0" d="M52.8 35.5l-.4 1.8.4-1.8c-1.3-.2-2.4-.7-3.4-1.4-1.5-1-2.6-2.3-3.4-3.5-.4-.6-.7-1.1-.9-1.4 0-.1-.1-.2-.1-.2.2-.1.4-.2.7-.2l.9-.3c1-.4 2-.9 2.8-1.7.4-.4.8-.9 1.1-1.4.3-.5.4-1.2.4-1.8v-.1c0-1.1-.5-2.1-1.1-2.8s-1.4-1.2-2.1-1.5h-.4c-.6-.2-1.1-.3-1.7-.3-.2 0-.6 0-1 .1 0-.8.1-1.7.1-2.6 0-2.3-.1-4.6-1.1-6.7-1-2.2-2.3-3.9-3.7-5.3-1.4-1.3-3-2.3-4.4-2.9C32.6.2 29.9 0 28.6 0h-.1H27.7c-1.3 0-3.9.2-6.9 1.5-1.5.6-3 1.6-4.4 2.9-1.7 1.2-3 2.9-4 5.1-.9 2.1-1 4.4-1.1 6.7 0 .9 0 1.8.1 2.7-.4-.1-.8-.1-1.1-.1-1.1 0-2.1.3-3 .9-.5.3-.9.7-1.3 1.2s-.7 1.1-.8 1.9c0 .2-.1.5-.1.8 0 .5.1 1.1.3 1.6.3.8.9 1.5 1.6 2s1.5 1 2.4 1.4l.9.3c.2.1.5.1.7.2-.3.6-.9 1.7-1.9 2.9-.7.8-1.5 1.6-2.5 2.3-1 .6-2.1 1.1-3.4 1.3-1.8.3-3.2 1.9-3.2 3.8v.2c0 .5.1 1 .3 1.4.4.8.9 1.5 1.5 1.9.9.7 1.9 1.1 3.1 1.5.7.2 1.5.4 2.3.6.1.2.1.5.2.7.1.5.5 1.2 1.2 1.9s1.7 1 2.7 1c.7 0 1.2-.1 1.7-.2.6-.1 1.3-.3 2.2-.3.5 0 1 0 1.5.1.2 0 .5.1.9.4.4.2.9.6 1.6 1 .9.6 2 1.4 3.4 2.1s3.1 1.1 5.1 1.1H28.4c2 0 3.7-.5 5.1-1.1 1.4-.7 2.5-1.5 3.4-2.1.6-.4 1.2-.8 1.6-1 .4-.2.7-.3.9-.4.5-.1 1-.1 1.5-.1.8 0 1.5.1 2.2.2.5.1 1.1.2 1.6.2.8 0 1.6-.2 2.4-.8.7-.5 1.1-1.2 1.4-2 .1-.3.1-.5.2-.7 1.3-.3 2.4-.6 3.4-1 .7-.3 1.4-.6 2-1.1.6-.4 1.1-1 1.5-1.8 0 0 0-.1.1-.1 0-.1 0-.1.1-.2.2-.4.3-.8.3-1.2V39.3c-.2-1.9-1.5-3.5-3.3-3.8zM28.3 3.6zm10.3 40.9c-.8.1-1.5.4-2.1.8-.7.4-1.3.8-1.9 1.2-.9.6-1.8 1.3-2.8 1.7-1 .5-2.1.8-3.5.8H27.7c-1.4 0-2.5-.3-3.5-.8s-1.9-1.1-2.8-1.7c-.6-.4-1.2-.9-1.9-1.2-.6-.4-1.3-.7-2.1-.8-.7-.1-1.4-.2-2.1-.2-1.2 0-2.2.2-2.9.3-.5.1-.8.1-1 .1h-.2s-.1-.1-.1-.2c-.1-.4-.2-.7-.3-1.1 0-.2-.1-.4-.2-.7-.2-.7-.8-1.2-1.5-1.4-1.2-.2-2.3-.4-3.1-.7-.9-.3-1.6-.6-1.9-.9-.2-.2-.4-.3-.4-.5v-.1l.1-.1c1.9-.3 3.5-1 4.8-1.9 1.4-.9 2.4-1.9 3.3-3 .9-1 1.5-2 2-2.8.2-.4.4-.7.5-.9.1-.1.1-.2.1-.3l.1-.1c.1-.3.2-.5.3-.8s.1-.5.1-.9v-.5c0-.2-.1-.3-.1-.5-.2-.4-.4-.7-.7-1s-.6-.4-.9-.6c-.6-.3-1.3-.5-1.8-.7-.3-.1-.5-.2-.7-.2-.7-.3-1.2-.6-1.5-.8s-.4-.4-.4-.5V23.2c0-.1.1-.2.1-.3l.3-.3c.3-.2.7-.3 1-.3.2 0 .3 0 .4.1.5.2.9.4 1.4.5.4.1.9.2 1.3.2h.1c.5 0 1-.3 1.3-.6s.5-.9.5-1.4v-.5c-.1-1.5-.2-3-.2-4.6 0-2.1.2-4 .7-5.2.8-1.8 1.8-3.1 2.8-4.1 1.1-1 2.2-1.7 3.4-2.2 2.3-1 4.4-1.1 5.4-1.1h1c1 0 3.1.1 5.4 1.1 1.1.5 2.3 1.2 3.4 2.2 1.1 1 2.1 2.3 2.8 4.1.6 1.2.8 3.1.7 5.2 0 1.5-.1 3.1-.2 4.6v.4c0 .5.2 1.1.6 1.5.4.4.9.6 1.5.5.7-.1 1.5-.3 2.3-.7.2-.1.4-.1.6-.1s.5 0 .7.1h.1c.3.1.6.3.7.4.1.1.2.3.2.4l-.1.3c0 .1-.1.2-.3.4-.3.3-.8.6-1.6.9-.2.1-.4.1-.7.2-.4.1-.8.3-1.3.5-.2.1-.5.2-.7.3-.2.1-.5.3-.7.5-.3.3-.5.5-.7 1-.1.1-.1.3-.1.5v.5c0 .3.1.6.1.9.1.3.2.5.3.8.1.2.6 1.3 1.5 2.7 1 1.4 2.4 3.1 4.5 4.5 1.3.9 3 1.6 4.8 1.9l.1.1v.1c0 .1-.2.3-.4.5s-.6.4-1.1.6c-.9.4-2.2.7-3.9 1-.7.1-1.3.7-1.5 1.4-.1.2-.1.5-.2.7-.1.4-.2.7-.3 1.1v.1h-.1c-.2 0-.5 0-1-.1-.8-.2-1.7-.3-2.9-.3-.9.1-1.6.2-2.3.3z"/>
            <path class="st0" d="M14.1 26.5z"/>
            <path class="st0" d="M50.4 25.4z"/>
            <path class="st0" d="M43.2 25.7z"/>
            <path class="st0" d="M41.8 26.5z"/>
        </g>
    </g>
</symbol></svg>