<?xml version="1.0" encoding="UTF-8"?><!DOCTYPE svg PUBLIC "-//W3C//DTD SVG 1.1//EN" "http://www.w3.org/Graphics/SVG/1.1/DTD/svg11.dtd"><svg xmlns="http://www.w3.org/2000/svg"><symbol id="icon-arrow-bottom" viewBox="0 0 12 27">
    <title>
        arrow
    </title>
    <path d="M.1 20.7l5.6 6.2c.1.1.2.1.3.1s.2 0 .3-.1l5.6-6.2c.1-.2.1-.4 0-.6-.1-.2-.4-.2-.5 0l-5 5.5V.4C6.4.2 6.2 0 6 0s-.4.2-.4.4v25.2l-5-5.5C.5 20 .4 20 .3 20c-.1 0-.2 0-.3.1 0 .2 0 .4.1.6z"/>
</symbol><symbol id="icon-arrow-top" viewBox="0 0 196.1 401.8">
    <path d="M194.3 93.9L102.2 1.8C101.1.7 99.5 0 98 0s-3.1.6-4.2 1.8L1.7 93.9c-2.3 2.3-2.3 6.1 0 8.5 2.3 2.3 6.1 2.3 8.5 0L92 20.6v375.1c0 3.4 2.7 6.1 6 6.1s6-2.7 6-6V20.6l81.9 81.8c1.2 1.2 2.7 1.8 4.2 1.8s3.1-.6 4.2-1.8c2.3-2.3 2.3-6.1 0-8.5z"/>
</symbol><symbol id="icon-facebook" viewBox="0 0 408.788 408.788">
    <path d="M353.701 0H55.087C24.665 0 .002 24.662.002 55.085v298.616c0 30.423 24.662 55.085 55.085 55.085h147.275l.251-146.078h-37.951a8.954 8.954 0 0 1-8.954-8.92l-.182-47.087a8.955 8.955 0 0 1 8.955-8.989h37.882v-45.498c0-52.8 32.247-81.55 79.348-81.55h38.65a8.955 8.955 0 0 1 8.955 8.955v39.704a8.955 8.955 0 0 1-8.95 8.955l-23.719.011c-25.615 0-30.575 12.172-30.575 30.035v39.389h56.285c5.363 0 9.524 4.683 8.892 10.009l-5.581 47.087a8.955 8.955 0 0 1-8.892 7.901h-50.453l-.251 146.078h87.631c30.422 0 55.084-24.662 55.084-55.084V55.085C408.786 24.662 384.124 0 353.701 0z"/>
</symbol><symbol id="icon-instagram" viewBox="0 0 551.034 551.034">
    <linearGradient id="a" gradientUnits="userSpaceOnUse" x1="275.517" y1="4.57" x2="275.517" y2="549.72" gradientTransform="matrix(1 0 0 -1 0 554)">
        <stop offset="0" stop-color="#e09b3d"/>
        <stop offset=".3" stop-color="#c74c4d"/>
        <stop offset=".6" stop-color="#c21975"/>
        <stop offset="1" stop-color="#7024c4"/>
    </linearGradient>
    <path d="M386.878 0H164.156C73.64 0 0 73.64 0 164.156v222.722c0 90.516 73.64 164.156 164.156 164.156h222.722c90.516 0 164.156-73.64 164.156-164.156V164.156C551.033 73.64 477.393 0 386.878 0zM495.6 386.878c0 60.045-48.677 108.722-108.722 108.722H164.156c-60.045 0-108.722-48.677-108.722-108.722V164.156c0-60.046 48.677-108.722 108.722-108.722h222.722c60.045 0 108.722 48.676 108.722 108.722v222.722z"/>
    <linearGradient id="b" gradientUnits="userSpaceOnUse" x1="275.517" y1="4.57" x2="275.517" y2="549.72" gradientTransform="matrix(1 0 0 -1 0 554)">
        <stop offset="0" stop-color="#e09b3d"/>
        <stop offset=".3" stop-color="#c74c4d"/>
        <stop offset=".6" stop-color="#c21975"/>
        <stop offset="1" stop-color="#7024c4"/>
    </linearGradient>
    <path d="M275.517 133C196.933 133 133 196.933 133 275.516s63.933 142.517 142.517 142.517S418.034 354.1 418.034 275.516 354.101 133 275.517 133zm0 229.6c-48.095 0-87.083-38.988-87.083-87.083s38.989-87.083 87.083-87.083c48.095 0 87.083 38.988 87.083 87.083 0 48.094-38.989 87.083-87.083 87.083z"/>
    <linearGradient id="c" gradientUnits="userSpaceOnUse" x1="418.31" y1="4.57" x2="418.31" y2="549.72" gradientTransform="matrix(1 0 0 -1 0 554)">
        <stop offset="0" stop-color="#e09b3d"/>
        <stop offset=".3" stop-color="#c74c4d"/>
        <stop offset=".6" stop-color="#c21975"/>
        <stop offset="1" stop-color="#7024c4"/>
    </linearGradient>
    <circle cx="418.31" cy="134.07" r="34.15"/>
</symbol><symbol id="icon-snapchat" viewBox="0 0 468.339 468.339">
    <path d="M233.962 33.724c62.857.021 115.216 52.351 115.292 115.36.018 14.758.473 28.348 1.306 40.867.514 7.724 6.938 13.448 14.305 13.448 1.085 0 2.19-.124 3.3-.384l19.691-4.616a10.956 10.956 0 0 1 2.51-.291c5.001 0 9.606 3.417 10.729 8.478 1.587 7.152-2.42 14.378-9.35 16.808l-29.89 12.066c-7.546 3.046-11.599 11.259-9.474 19.115 23.98 88.654 90.959 79.434 90.959 90.984 0 14.504-50.485 16.552-55.046 21.114s-.198 26.701-10.389 30.987c-1.921.808-4.65 1.089-7.979 1.089-7.676 0-18.532-1.498-29.974-1.498-9.925 0-20.291 1.127-29.404 5.337-24.176 11.168-47.484 32.028-76.378 32.028s-52.202-20.86-76.378-32.028c-9.115-4.211-19.478-5.337-29.404-5.337-11.441 0-22.299 1.498-29.974 1.498-3.327 0-6.059-.282-7.979-1.089-10.191-4.286-5.828-26.425-10.389-30.987S25 360.062 25 345.558c0-11.551 66.979-2.331 90.959-90.984 2.125-7.855-1.928-16.068-9.475-19.115l-29.89-12.066a14.486 14.486 0 0 1-9.35-16.808c1.123-5.062 5.728-8.479 10.729-8.478.83 0 1.672.094 2.51.291l19.691 4.616c1.11.26 2.215.384 3.3.384 7.366 0 13.791-5.725 14.305-13.448.833-12.519 1.289-26.109 1.307-40.867.076-63.008 52.018-115.337 114.876-115.359m.008-25h-.018c-18.762.006-37.039 3.776-54.321 11.206-16.589 7.131-31.519 17.299-44.375 30.222-12.839 12.906-22.943 27.889-30.031 44.533-7.37 17.307-11.118 35.599-11.141 54.368a642.063 642.063 0 0 1-.57 26.722l-7.326-1.718a36.103 36.103 0 0 0-8.213-.951 36.3 36.3 0 0 0-22.146 7.588c-6.581 5.106-11.196 12.377-12.993 20.474-4.277 19.273 6.365 38.73 24.807 45.572l21.937 8.855c-14.526 44.586-41.311 53.13-59.348 58.885-4.786 1.527-8.92 2.846-12.856 4.799C1.693 327.063 0 340.25 0 345.558c0 10.167 4.812 19.445 13.551 26.124 4.351 3.326 9.741 6.07 16.477 8.389 9.181 3.161 19.824 5.167 28.474 6.775.418 3.205 1.031 6.648 2.064 10.118 4.289 14.411 13.34 20.864 20.178 23.739 6.488 2.729 13.192 3.044 17.67 3.044 4.38 0 9.01-.343 13.912-.706 5.259-.39 10.697-.792 16.062-.792 8.314 0 14.503.992 18.92 3.032 6.065 2.802 12.497 6.58 19.307 10.579 18.958 11.134 40.445 23.754 67.555 23.754s48.596-12.62 67.554-23.754c6.81-4 13.242-7.777 19.308-10.579 4.417-2.041 10.606-3.032 18.92-3.032 5.365 0 10.803.403 16.061.792 4.902.363 9.532.706 13.912.706 4.478 0 11.181-.315 17.67-3.044 6.838-2.875 15.889-9.328 20.178-23.739 1.033-3.47 1.647-6.913 2.064-10.118 8.65-1.609 19.294-3.614 28.474-6.775 6.737-2.319 12.126-5.063 16.477-8.389 8.738-6.679 13.551-15.957 13.551-26.124 0-5.308-1.693-18.495-17.378-26.278-3.936-1.953-8.07-3.272-12.856-4.799-18.037-5.754-44.822-14.299-59.348-58.885l21.936-8.855c18.442-6.842 29.085-26.3 24.808-45.573-1.797-8.097-6.412-15.368-12.993-20.474-6.308-4.893-14.171-7.588-22.142-7.588-2.761 0-5.525.32-8.215.95l-7.327 1.718a641.988 641.988 0 0 1-.57-26.722c-.023-18.784-3.801-37.094-11.23-54.424-7.131-16.636-17.29-31.615-30.194-44.522-12.903-12.906-27.875-23.063-44.498-30.188-17.315-7.421-35.605-11.187-54.362-11.194z"/>
</symbol></svg>